<svg width="1024" height="1024" xmlns="http://www.w3.org/2000/svg" class="icon">
 <defs>
  <style type="text/css"/>
 </defs>
 <g stroke="null">
  <title>background</title>
  <rect x="-1" y="-1" width="1026" height="1026" id="canvas_background" fill="none" stroke="null"/>
 </g>
 <g stroke="null">
  <title>Layer 1</title>
  <text fill="#000000" stroke-width="0" stroke-opacity="null" fill-opacity="null" x="1037.996238" y="304.001488" id="svg_3" font-size="24" font-family="Helvetica, Arial, sans-serif" text-anchor="start" xml:space="preserve" transform="matrix(27.079439163208008,0,0,18.495201110839844,-27070.050360172987,-4938.293876051903) " stroke="null"/>
  <g id="svg_5" stroke="null">
   <path d="m838.136,678.152s-185.16,-174.768 -273.936,-264c-38.496,-38.736 -59.784,-39.456 -98.52,-0.504c-88.224,88.68 -274.608,264.504 -274.608,264.504l0,195.408a27.84,27.84 0 0 0 -0.096,2.496l0,44.736c0,15.816 12.768,28.704 28.536,28.704l145.68,0c15.792,0 28.536,-12.888 28.536,-28.704l0,-191.76c0,-15.864 12.792,-28.728 28.56,-28.728l186.72,0c15.744,0 28.536,12.864 28.536,28.728l0,191.76c0,15.816 12.744,28.704 28.512,28.704l144.168,0c15.744,0 28.536,-12.888 28.536,-28.704l0,-44.736c0,-2.136 -0.24,-4.176 -0.672,-6.192l0,-191.712l0.048,0z" fill="#309DD9" id="svg_1" stroke="null"/>
   <path d="m957.18394,515.936c-80.304,-68.088 -292.512,-266.448 -385.728,-360.168c-43.968,-44.208 -53.664,-44.496 -97.44,-0.504c-93.024,93.48 -311.088,286.248 -385.152,360.696c-17.184,17.28 -17.352,33.24 0.768,51.48c12.672,12.672 28.512,33.384 42.048,44.616c25.8,21.456 30.024,17.424 52.512,-4.704c60.168,-59.28 217.44,-217.704 294.384,-295.032c37.776,-37.968 48.888,-38.784 87.912,0.456c74.448,74.832 232.512,227.376 296.664,291.384c31.008,30.912 37.488,23.592 64.56,-4.512c10.896,-11.304 15.576,-15.648 27.288,-26.352c21.6,-19.8 24.12,-38.712 2.184,-57.36z" fill="#309DD9" id="svg_2" stroke="null"/>
  </g>
 </g>
</svg>